<svg width="39" height="38" viewBox="0 0 39 38" fill="none" xmlns="http://www.w3.org/2000/svg">
<path fill-rule="evenodd" clip-rule="evenodd" d="M19.3827 38.0003L0.94695 1.68133C0.94695 1.68133 0.372021 0.505859 1.18719 0.505859H22.3107C22.3107 0.505859 23.1423 0.591412 22.5735 1.67899C22.0048 2.76656 15.6559 15.3991 15.6282 15.4542C15.6282 15.4542 15.6179 15.4846 15.5871 15.4858C15.5563 15.4858 15.546 15.4553 15.546 15.4553L12.6786 9.36937C12.6786 9.36937 12.1057 8.33453 12.6355 8.33453H15.3346L17.048 5.53824C17.048 5.53824 17.623 4.29597 16.1682 4.29597H6.61822L21.0839 33.8105L21.1259 35.2602L19.3827 38.0003Z" fill="#4069FF"/>
<path fill-rule="evenodd" clip-rule="evenodd" d="M19.3827 38.0003L0.94695 1.68133C0.94695 1.68133 0.372021 0.505859 1.18719 0.505859H22.3107C22.3107 0.505859 23.1423 0.591412 22.5735 1.67899C22.0048 2.76656 15.6559 15.3991 15.6282 15.4542C15.6282 15.4542 15.6179 15.4846 15.5871 15.4858C15.5563 15.4858 15.546 15.4553 15.546 15.4553L12.6786 9.36937C12.6786 9.36937 12.1057 8.33453 12.6355 8.33453H15.3346L17.048 5.53824C17.048 5.53824 17.623 4.29597 16.1682 4.29597H6.61822L21.0839 33.8105L21.1259 35.2602L19.3827 38.0003Z" fill="white" fill-opacity="0.1"/>
<path fill-rule="evenodd" clip-rule="evenodd" d="M23.3115 30.3428L24.8988 27.598V26.3054L21.5036 19.9534L21.4892 18.7451L26.5979 9.37175C26.5979 9.37175 27.0373 8.33691 26.2714 8.33691H22.904L17.4154 19.1845L23.3115 30.3428Z" fill="#4069FF"/>
<path fill-rule="evenodd" clip-rule="evenodd" d="M23.3115 30.3428L24.8988 27.598V26.3054L21.5036 19.9534L21.4892 18.7451L26.5979 9.37175C26.5979 9.37175 27.0373 8.33691 26.2714 8.33691H22.904L17.4154 19.1845L23.3115 30.3428Z" fill="white" fill-opacity="0.1"/>
<path fill-rule="evenodd" clip-rule="evenodd" d="M27.0858 23.0412L25.4319 19.9695L25.5428 18.3803L32.0569 5.5392C32.0569 5.5392 32.6318 4.29692 31.5867 4.29692H25.5828C25.5828 4.29692 24.7492 4.352 25.4319 3.01715L26.1136 1.68111L26.6741 0.509157H37.4643C37.4643 0.509157 38.7877 0.318128 37.9992 1.68111C37.2107 3.0441 27.0858 23.0412 27.0858 23.0412Z" fill="#4069FF"/>
<path fill-rule="evenodd" clip-rule="evenodd" d="M27.0858 23.0412L25.4319 19.9695L25.5428 18.3803L32.0569 5.5392C32.0569 5.5392 32.6318 4.29692 31.5867 4.29692H25.5828C25.5828 4.29692 24.7492 4.352 25.4319 3.01715L26.1136 1.68111L26.6741 0.509157H37.4643C37.4643 0.509157 38.7877 0.318128 37.9992 1.68111C37.2107 3.0441 27.0858 23.0412 27.0858 23.0412Z" fill="white" fill-opacity="0.1"/>
</svg>
